<?xml version="1.0" encoding="utf-8"?>
<!-- Generator: Adobe Illustrator 21.0.2, SVG Export Plug-In . SVG Version: 6.00 Build 0)  -->
<svg version="1.1" id="Calque_1" xmlns="http://www.w3.org/2000/svg" xmlns:xlink="http://www.w3.org/1999/xlink" x="0px" y="0px"
	 viewBox="0 0 460 460" style="enable-background:new 0 0 460 460;" xml:space="preserve">
<style type="text/css">
	.st0{fill:#FFFFFF;}
</style>
<path class="st0" d="M230,120.8L66,256.1c0,0.2,0,0.5-0.1,0.9c-0.1,0.4-0.1,0.7-0.1,0.9v136.9c0,4.9,1.8,9.2,5.4,12.8
	c3.6,3.6,7.9,5.4,12.8,5.4h109.5V303.5h73.1V413h109.5c4.9,0,9.2-1.8,12.8-5.4s5.4-7.9,5.4-12.8v-137c0-0.8-0.1-1.3-0.3-1.7
	L230,120.8z"/>
<path class="st0" d="M456.8,225.3l-62.5-51.9V57c0-2.7-0.9-4.9-2.6-6.6c-1.7-1.7-3.9-2.6-6.6-2.6h-54.8c-2.7,0-4.9,0.9-6.6,2.6
	c-1.7,1.7-2.6,3.9-2.6,6.6v55.7l-69.7-58.2c-6.1-4.9-13.3-7.4-21.7-7.4c-8.4,0-15.6,2.5-21.7,7.4L3.2,225.3
	c-1.9,1.5-2.9,3.6-3.1,6.1c-0.2,2.6,0.5,4.8,2,6.7l17.7,21.1c1.5,1.7,3.5,2.8,6,3.1c2.3,0.2,4.6-0.5,6.9-2L230,95.7l197.5,164.6
	c1.5,1.3,3.5,2,6,2h0.9c2.5-0.4,4.5-1.4,6-3.1l17.7-21.1c1.5-1.9,2.2-4.1,2-6.7S458.7,226.9,456.8,225.3z"/>
</svg>
